<svg data-v-423bf9ae="" xmlns="http://www.w3.org/2000/svg" viewBox="0 0 295 100" class="iconLeft"><!----><!----><!----><g data-v-423bf9ae="" id="adc6b1bc-8a81-4600-b826-1afa70f33711" fill="white" transform="matrix(4.4776120677666755,0,0,4.4776120677666755,115.99964908141816,4.511547829531729)"><path d="M10.02 13.52L10.02 4.36L9.53 4.36L5.80 8.44L2.00 4.36L1.50 4.36L1.50 13.52L2.73 13.52L2.73 6.82L5.62 9.97L5.97 9.97L8.79 6.82L8.79 13.52ZM13.78 5.26C14.30 5.26 14.71 4.81 14.71 4.33C14.71 3.84 14.30 3.40 13.78 3.40C13.25 3.40 12.85 3.84 12.85 4.33C12.85 4.81 13.25 5.26 13.78 5.26ZM14.48 6.69L12.28 6.69L12.28 7.74L13.36 7.74L13.36 13.52L14.48 13.52ZM24.79 6.55C23.78 6.55 23.08 7.19 22.44 7.94C21.97 7.01 21.05 6.55 20.07 6.55C19.14 6.55 18.46 7.07 18.02 7.56L18.02 6.69L16.90 6.69L16.90 13.52L18.02 13.52L18.02 8.76C18.53 8.15 19.13 7.64 19.88 7.64C20.96 7.64 21.60 8.29 21.60 9.46L21.62 13.52L22.74 13.52L22.74 8.87C23.26 8.22 23.80 7.64 24.60 7.64C25.68 7.64 26.32 8.29 26.32 9.46L26.33 13.52L27.45 13.52L27.45 9.35C27.45 7.46 26.18 6.55 24.79 6.55ZM30.67 5.26C31.19 5.26 31.60 4.81 31.60 4.33C31.60 3.84 31.19 3.40 30.67 3.40C30.13 3.40 29.74 3.84 29.74 4.33C29.74 4.81 30.13 5.26 30.67 5.26ZM31.36 6.69L29.16 6.69L29.16 7.74L30.24 7.74L30.24 13.52L31.36 13.52ZM36.60 6.55C34.73 6.55 33.30 7.96 33.30 10.21C33.30 12.29 34.73 13.73 36.49 13.73C37.53 13.73 38.36 13.08 38.84 12.36L38.84 16.80L39.96 16.80L39.96 6.69L38.84 6.69L38.84 7.60C38.25 6.95 37.38 6.55 36.60 6.55ZM36.80 7.66C37.64 7.66 38.25 8.07 38.83 8.78L38.84 10.09C38.86 11.55 37.91 12.62 36.67 12.62C35.34 12.62 34.47 11.54 34.47 10.21C34.47 8.89 35.34 7.66 36.80 7.66Z"></path></g><!----><g data-v-423bf9ae="" id="29274f06-2c35-4ede-9ee0-539b3d0b7520" transform="matrix(1.051300048828125,0,0,1.051300048828125,-0.41810740264554624,-1.8316182554081024)" stroke="none" fill="white"><path d="M92.812 49.125a6.058 6.058 0 0 0-5.383 3.281l-27.775-4.741a10.628 10.628 0 0 0-.43-1.82l22.734-11.268c1.703 1.74 4.389 2.262 6.658 1.072a5.663 5.663 0 0 0-5.262-10.03c-2.172 1.143-3.273 3.49-2.957 5.785l-22.842 11.32a10.669 10.669 0 0 0-1.673-1.732l18.902-26.375c.938.109 1.906.016 2.84-.373a5.662 5.662 0 1 0-7.405-3.044c.317.76.788 1.403 1.353 1.935l-18.795 26.1a10.61 10.61 0 0 0-1.633-.45l-1.179-19.699A5.5 5.5 0 1 0 42.375 14a5.499 5.499 0 0 0 4.066 5.305l1.161 19.416c-.691.103-1.359.267-1.999.496L24.944 12.771A6.838 6.838 0 0 0 26.25 8.75a6.875 6.875 0 1 0-6.875 6.875 6.844 6.844 0 0 0 2.827-.613l20.281 25.947a10.724 10.724 0 0 0-2.647 3.174l-18.602-6.435c.005-.1.03-.194.03-.297a5.841 5.841 0 0 0-5.84-5.84 5.84 5.84 0 0 0 0 11.681c1.855 0 3.489-.882 4.558-2.229l18.715 6.473a10.775 10.775 0 0 0-.152 1.726c0 .078.01.153.011.231L11.63 58.19c-1-1.605-2.767-2.682-4.797-2.682a5.662 5.662 0 0 0 0 11.324c2.967 0 5.374-2.291 5.617-5.195l26.773-8.72a10.573 10.573 0 0 0 2.546 3.905L30.218 73.656a4.944 4.944 0 0 0-6.001 3.321 4.956 4.956 0 0 0 9.474 2.908c.449-1.464.167-2.963-.607-4.151l11.601-16.906c1.362.635 2.875 1 4.477 1 .207 0 .405-.019.609-.029l2.371 23.204a6.873 6.873 0 0 0 2.233 13.372 6.873 6.873 0 1 0 1.262-13.629L53.346 58.97a10.617 10.617 0 0 0 3.637-2.597l16.47 17.112a5.466 5.466 0 0 0-.827 2.89 5.5 5.5 0 1 0 5.5-5.5c-.615 0-1.205.105-1.758.292-.045-.029-.123-.015-.268.09L58.917 53.404c.301-.699.524-1.437.671-2.203l27.199 4.647a6.062 6.062 0 1 0 6.025-6.723z"></path></g><!----></svg>